<?xml version="1.0" standalone="no"?><!DOCTYPE svg PUBLIC "-//W3C//DTD SVG 1.1//EN" "http://www.w3.org/Graphics/SVG/1.1/DTD/svg11.dtd"><svg t="1725681725962" class="icon" viewBox="0 0 1024 1024" version="1.1" xmlns="http://www.w3.org/2000/svg" p-id="9460" xmlns:xlink="http://www.w3.org/1999/xlink" width="200" height="200"><path d="M647.86 898.44H224.22c-53.96 0-97.88-43.91-97.88-97.88V210.02c0-53.96 43.91-97.86 97.88-97.86h423.63c20.2 0 36.57 16.38 36.57 36.57s-16.38 36.57-36.57 36.57H224.22c-13.63 0-24.73 11.09-24.73 24.71v590.55c0 13.64 11.1 24.73 24.73 24.73h423.63c20.2 0 36.57 16.38 36.57 36.57 0.01 20.21-16.37 36.58-36.56 36.58z" fill="#fff" p-id="9461"></path><path d="M833.28 541.87H433.91c-20.2 0-36.57-16.38-36.57-36.57s16.38-36.57 36.57-36.57h399.37c20.2 0 36.57 16.38 36.57 36.57s-16.38 36.57-36.57 36.57z" fill="#fff" p-id="9462"></path><path d="M693.75 709c-9.36 0-18.72-3.57-25.86-10.71-14.29-14.29-14.29-37.43 0-51.71L809.15 505.3 667.89 364.03c-14.29-14.29-14.29-37.43 0-51.71 14.27-14.29 37.45-14.29 51.71 0l167.12 167.12c14.29 14.29 14.29 37.43 0 51.71L719.61 698.28c-7.14 7.15-16.5 10.72-25.86 10.72z" fill="#fff" p-id="9463"></path></svg>