<svg width="28" height="24" viewBox="0 0 28 24" fill="none" xmlns="http://www.w3.org/2000/svg">
<path d="M25.6133 0.211863C25.6133 0.211863 28.2032 -0.826981 27.9872 1.69607C27.9152 2.73492 27.2682 6.37087 26.7643 10.3041L25.0373 21.9535C25.0373 21.9535 24.8933 23.6599 23.5984 23.9571C22.3034 24.2544 20.3605 22.9183 20.0005 22.6211C19.7126 22.3989 14.6048 19.0592 12.8058 17.4268C12.3019 16.9815 11.7269 16.0907 12.8778 15.0519L20.4325 7.63188C21.2955 6.74115 22.1595 4.66346 18.5616 7.18651L8.48903 14.2362C8.48903 14.2362 7.33807 14.9778 5.17916 14.3103L0.502361 12.8261C0.502361 12.8261 -1.22457 11.7132 1.72531 10.6003C8.92101 7.11246 17.7706 3.55056 25.6133 0.211863Z" fill="currentColor" />
</svg>
