<svg width="18" height="19" viewBox="0 0 18 19" fill="none" xmlns="http://www.w3.org/2000/svg">
<path id="Vector" d="M17.8393 17.0028C17.8393 17.2727 17.7857 17.5426 17.6786 17.7585C17.5714 17.9744 17.4643 18.1903 17.3036 18.4062C17.1429 18.5682 16.9286 18.7301 16.7143 18.8381C16.5 18.946 16.2321 19 15.9643 19H1.98214C1.71429 19 1.44643 18.946 1.23214 18.8381C0.964286 18.7301 0.75 18.6222 0.589286 18.4062C0.428571 18.2443 0.267857 18.0284 0.160714 17.7585C0.0535714 17.5426 -2.35421e-08 17.2727 0 17.0028V6.26136C0 5.72159 0.214286 5.2358 0.589286 4.85796C0.964286 4.48011 1.44643 4.2642 1.98214 4.2642H16.0179C16.5536 4.2642 17.0357 4.48011 17.4107 4.85796C17.7857 5.2358 18 5.72159 18 6.26136V9.17614H13.0179C12.4821 9.17614 12 9.33807 11.625 9.71591C11.25 10.0938 11.0357 10.5256 11.0357 11.1193C11.0357 11.4972 11.1429 11.821 11.25 12.0909C11.3571 12.3608 11.5714 12.5767 11.8393 12.7386C12.1071 12.9545 12.4821 13.0625 12.9643 13.0625H17.8393V17.0028ZM14.9464 3.29261H5.25C6 2.91477 6.75 2.48295 7.44643 2.10511L9.21429 1.13352C9.80357 0.809659 10.2321 0.59375 10.6071 0.377841C11.0893 0.107955 11.5714 0 11.9464 0C12.3214 0 12.6964 0.107955 12.9643 0.215909C13.2857 0.377841 13.5536 0.59375 13.7679 0.863636L14.9464 3.29261ZM12.0536 11.1193C12.0536 10.8494 12.1607 10.6335 12.3214 10.4176C12.4821 10.2557 12.75 10.1477 13.0179 10.1477C13.2857 10.1477 13.5 10.2557 13.7143 10.4176C13.875 10.5795 13.9821 10.8494 13.9821 11.1193C13.9821 11.3892 13.875 11.6051 13.7143 11.821C13.5536 12.0369 13.2857 12.0909 13.0179 12.0909C12.75 12.0909 12.5357 11.983 12.3214 11.821C12.1607 11.6591 12.0536 11.4432 12.0536 11.1193Z" fill="white"/>
</svg>
