<svg xmlns="http://www.w3.org/2000/svg" width="49" height="49" viewBox="0 0 49 49" fill="#fff">
  <g clip-path="url(#clip0_761_1108)">
    <path d="M24.4868 49.0085C24.3662 48.9846 24.2409 48.9673 24.1193 48.9348C22.7355 48.5644 21.3535 48.1912 19.9696 47.8198C18.6537 47.4667 17.3368 47.1174 16.0209 46.7652C14.8763 46.4589 13.7317 46.1508 12.5861 45.8464C12.3469 45.7823 12.1459 45.6646 11.9698 45.4885C9.14944 42.6643 6.32811 39.842 3.50391 37.0217C3.32782 36.8456 3.21298 36.6427 3.14886 36.4044C2.74499 34.8856 2.34016 33.3668 1.93343 31.8479C1.48745 30.1827 1.0386 28.5184 0.591669 26.8532C0.404091 26.1555 0.220341 25.4569 0.0337195 24.7583C-0.0131751 24.5831 -0.012218 24.408 0.0346765 24.2319C0.338055 23.0988 0.641434 21.9656 0.943856 20.8316C1.25776 19.6563 1.57167 18.4801 1.88653 17.3049C2.25595 15.9277 2.62536 14.5496 2.99573 13.1724C3.05794 12.9399 3.12302 12.7083 3.18618 12.4757C3.23212 12.3063 3.32112 12.1618 3.44171 12.0364C3.49434 11.9819 3.5489 11.9283 3.60249 11.8747C6.36639 9.1108 9.13126 6.34785 11.8913 3.58107C12.1182 3.35426 12.3679 3.204 12.6818 3.1217C14.5327 2.63553 16.3798 2.135 18.2288 1.64021C19.9304 1.18371 21.632 0.728164 23.3336 0.27166C23.6332 0.19127 23.9337 0.111836 24.2332 0.0295312C24.4093 -0.0192773 24.5835 -0.0183203 24.7586 0.0285742C25.9032 0.335781 27.0478 0.642988 28.1924 0.949238C29.2882 1.24209 30.385 1.53207 31.4808 1.82588C32.8034 2.17998 34.1241 2.53695 35.4467 2.89297C35.7951 2.98676 36.1444 3.0815 36.4937 3.17242C36.6765 3.22027 36.8316 3.31502 36.9656 3.44518C37.0115 3.4892 37.0555 3.53418 37.1005 3.57916C39.873 6.35168 42.6446 9.12611 45.42 11.8958C45.643 12.1178 45.7875 12.3647 45.8679 12.6719C46.3445 14.4797 46.8354 16.2847 47.3187 18.0906C47.7867 19.8353 48.2518 21.5809 48.7179 23.3265C48.8002 23.6328 48.8825 23.939 48.9648 24.2443C49.0107 24.4137 49.0098 24.5822 48.9639 24.7516C48.5791 26.1842 48.1954 27.6169 47.8116 29.0496C47.4805 30.2861 47.1522 31.5235 46.822 32.761C46.4947 33.986 46.1655 35.21 45.8382 36.434C45.7779 36.6609 45.6631 36.8504 45.4965 37.0169C42.6685 39.842 39.8424 42.6691 37.0172 45.4971C36.8411 45.6732 36.6373 45.7871 36.399 45.8503C34.7395 46.2915 33.08 46.7336 31.4205 47.1777C29.896 47.5863 28.3733 47.9979 26.8488 48.4065C26.1568 48.5922 25.4649 48.7759 24.772 48.9578C24.683 48.9817 24.5883 48.9903 24.4868 49.0085ZM0.912274 24.4874C0.921844 24.5324 0.927587 24.5697 0.937157 24.6071C1.1812 25.5201 1.42429 26.4321 1.66929 27.3442C2.09995 28.9481 2.53253 30.5512 2.96319 32.1561C3.31634 33.472 3.66757 34.7889 4.01593 36.1067C4.05134 36.2417 4.11737 36.346 4.21499 36.4427C6.99804 39.2228 9.78013 42.0049 12.5603 44.7889C12.6579 44.8875 12.7661 44.9488 12.8991 44.9842C13.5489 45.1555 14.1968 45.3316 14.8457 45.5048C16.4066 45.923 17.9675 46.3422 19.5294 46.7595C21.1391 47.1901 22.7498 47.6198 24.3595 48.0524C24.4562 48.0782 24.5433 48.0792 24.6399 48.0524C25.0122 47.9481 25.3855 47.8486 25.7597 47.749C27.3579 47.3222 28.9562 46.8963 30.5544 46.4685C32.3976 45.9756 34.2399 45.4799 36.0832 44.9889C36.2286 44.9507 36.3464 44.8837 36.4535 44.7755C37.9896 43.2337 39.5294 41.6958 41.0683 40.1569C42.302 38.9233 43.5346 37.6878 44.7721 36.457C44.8859 36.3441 44.9549 36.2197 44.9931 36.0694C45.0659 35.7871 45.1434 35.5057 45.219 35.2244C45.7147 33.3754 46.2105 31.5264 46.7053 29.6774C47.1579 27.9873 47.6106 26.2972 48.0595 24.6061C48.0776 24.5362 48.0767 24.4539 48.0585 24.3841C47.9408 23.9304 47.8154 23.4778 47.6939 23.0251C47.2374 21.3225 46.7809 19.6209 46.3253 17.9184C45.8803 16.2531 45.4353 14.5869 44.9922 12.9207C44.952 12.7705 44.8831 12.6461 44.7701 12.5341C43.4303 11.2 42.0943 9.86111 40.7573 8.52414C39.3218 7.08859 37.8853 5.65305 36.4516 4.21463C36.3492 4.11127 36.2373 4.04428 36.0985 4.00695C35.5042 3.85 34.9108 3.69018 34.3165 3.53131C33.3671 3.2777 32.4187 3.02504 31.4693 2.77047C30.2941 2.45561 29.1189 2.13787 27.9436 1.82301C26.8421 1.52729 25.7396 1.23443 24.638 0.937754C24.5423 0.911914 24.4562 0.910957 24.3595 0.937754C23.7671 1.10141 23.1728 1.25932 22.5785 1.41818C21.4827 1.71104 20.3859 2.00197 19.2901 2.29578C18.2489 2.57428 17.2096 2.85564 16.1683 3.1351C15.0783 3.42699 13.9882 3.71793 12.8981 4.00791C12.7594 4.04428 12.6483 4.11223 12.545 4.21559C10.9908 5.77555 9.43272 7.33168 7.87659 8.88877C6.6602 10.1052 5.44573 11.3215 4.22647 12.5351C4.11354 12.647 4.04177 12.7695 4.00444 12.9217C3.92597 13.2413 3.83983 13.56 3.7537 13.8787C3.28475 15.6234 2.81485 17.3681 2.34686 19.1127C1.91141 20.7349 1.47788 22.358 1.04339 23.9802C0.999364 24.1496 0.955341 24.3219 0.912274 24.4874Z" />
    <path d="M47.1128 24.5192C47.0888 24.6149 47.0659 24.7135 47.0391 24.8111C46.7405 25.9251 46.4419 27.0391 46.1433 28.154C45.8265 29.336 45.5078 30.5169 45.1911 31.6979C44.9001 32.7813 44.6111 33.8656 44.3211 34.949C44.256 35.194 44.1862 35.438 44.1278 35.6849C44.0981 35.8112 44.0149 35.8935 43.9297 35.9787C41.4797 38.4278 39.0306 40.8778 36.5806 43.3278C36.3701 43.5383 36.1557 43.7469 35.95 43.9623C35.8677 44.0484 35.7739 44.102 35.6609 44.1326C34.4302 44.4599 33.1995 44.7882 31.9687 45.1174C30.7322 45.4485 29.4957 45.7816 28.2602 46.1127C27.2257 46.3903 26.1911 46.6668 25.1566 46.9434C24.9489 46.9989 24.7403 47.0966 24.5316 47.0966C24.323 47.0966 24.1153 47.0009 23.9067 46.9444C22.6453 46.6066 21.3849 46.2687 20.1235 45.9309C19.0402 45.6409 17.9559 45.3519 16.8725 45.0609C15.8255 44.7805 14.7833 44.4839 13.7306 44.2264C13.3659 44.1374 13.0961 43.9594 12.8386 43.7001C10.2738 41.1237 7.70127 38.5541 5.12877 35.9854C5.01679 35.8735 4.94693 35.7529 4.90673 35.5997C4.59379 34.4168 4.27318 33.2368 3.95736 32.0549C3.66355 30.9591 3.37261 29.8623 3.07976 28.7665C2.74863 27.53 2.4175 26.2926 2.08349 25.0571C1.93898 24.5231 1.93994 24.525 2.08445 23.989C2.40123 22.8138 2.71322 21.6376 3.02808 20.4624C3.38314 19.1398 3.73916 17.8181 4.09421 16.4955C4.36984 15.4667 4.64451 14.4379 4.91726 13.4091C4.94884 13.2904 5.00052 13.1909 5.09048 13.1009C7.76634 10.4289 10.4403 7.75396 13.1123 5.07905C13.1918 4.99962 13.2788 4.94603 13.386 4.91827C14.3354 4.66562 15.2848 4.41392 16.2332 4.15935C17.4084 3.84448 18.5827 3.52675 19.7579 3.21189C20.7006 2.95923 21.6433 2.70657 22.586 2.45488C23.186 2.29409 23.787 2.13714 24.3862 1.97349C24.4819 1.94765 24.5661 1.94573 24.6637 1.97157C26.0466 2.34386 27.4305 2.71136 28.8143 3.08269C30.1972 3.45306 31.5802 3.8263 32.9631 4.19763C33.8502 4.43593 34.7384 4.67232 35.6265 4.90775C35.7586 4.94316 35.8667 5.00345 35.9653 5.10202C38.6191 7.76066 41.2749 10.4164 43.9335 13.0703C44.0474 13.1832 44.1096 13.3086 44.1498 13.4598C44.5163 14.8379 44.8877 16.2151 45.2561 17.5922C45.5729 18.7742 45.8878 19.9561 46.2046 21.1371C46.4945 22.2204 46.7855 23.3048 47.0764 24.3881C47.0879 24.4293 47.0994 24.4723 47.1128 24.5192ZM24.5221 2.23284C24.4819 2.24433 24.4455 2.25486 24.4091 2.26443C23.2272 2.58025 22.0453 2.89511 20.8643 3.21093C19.5359 3.56695 18.2076 3.92296 16.8792 4.27993C15.771 4.57757 14.6637 4.87712 13.5554 5.16997C13.4329 5.20251 13.3382 5.25802 13.2501 5.34607C10.6173 7.98077 7.98359 10.6155 5.34888 13.2483C5.26658 13.3306 5.20341 13.4167 5.17949 13.5373C5.14791 13.6981 5.09527 13.856 5.0522 14.0149C4.72011 15.2513 4.38707 16.4878 4.05593 17.7243C3.76213 18.8201 3.47119 19.9169 3.17834 21.0127C2.87687 22.1391 2.57636 23.2665 2.27203 24.3919C2.2481 24.4809 2.24714 24.5613 2.27107 24.6513C2.56775 25.7528 2.85964 26.8563 3.15441 27.9578C3.50851 29.2805 3.86644 30.6021 4.22054 31.9247C4.53541 33.1 4.85123 34.2762 5.16035 35.4524C5.20054 35.6055 5.27328 35.7261 5.38429 35.8371C6.73754 37.1855 8.08695 38.5369 9.43732 39.8872C10.7025 41.1524 11.9677 42.4176 13.2329 43.6838C13.319 43.7699 13.4061 43.8388 13.5325 43.8704C14.1095 44.0178 14.6838 44.1757 15.2589 44.3307C16.3117 44.6131 17.3644 44.8954 18.4171 45.1777C19.3598 45.4304 20.3025 45.684 21.2452 45.9366C22.2979 46.219 23.3506 46.5013 24.4053 46.7798C24.4799 46.7999 24.5689 46.7999 24.6436 46.7798C25.4465 46.5692 26.2485 46.3539 27.0505 46.1395C27.9999 45.8859 28.9483 45.6333 29.8977 45.3787C30.938 45.1002 31.9783 44.8198 33.0195 44.5403C33.8215 44.325 34.6226 44.1087 35.4265 43.9001C35.5987 43.8551 35.7337 43.7728 35.859 43.6474C38.4497 41.051 41.0442 38.4584 43.6368 35.8648C43.677 35.8246 43.723 35.7883 43.7565 35.7423C43.7967 35.6878 43.8397 35.6284 43.857 35.5643C44.1996 34.2982 44.5393 33.0301 44.8791 31.763C45.1978 30.5753 45.5155 29.3876 45.8332 28.199C46.149 27.0171 46.4629 25.8351 46.7807 24.6532C46.8046 24.5633 46.8056 24.4838 46.7816 24.3939C46.4993 23.3478 46.2208 22.2999 45.9404 21.2529C45.571 19.8757 45.2006 18.4985 44.8312 17.1204C44.5163 15.9452 44.2015 14.769 43.8914 13.5928C43.8512 13.4397 43.7785 13.3191 43.6665 13.2081C41.0528 10.5983 38.4421 7.98652 35.8313 5.37478C35.8093 5.35277 35.7901 5.32405 35.7633 5.30874C35.6896 5.26376 35.6169 5.20825 35.5356 5.18529C35.17 5.08097 34.8015 4.98527 34.435 4.88669C32.6233 4.39956 30.8117 3.91243 29 3.4253C27.5865 3.04536 26.172 2.66734 24.7575 2.28931C24.6809 2.26921 24.6005 2.25198 24.5221 2.23284Z" />
    <path d="M34.3824 28.7685C34.413 28.98 34.39 29.1924 34.3517 29.402C34.19 30.2882 33.8321 31.096 33.3593 31.8558C32.9478 32.5181 32.4539 33.1105 31.828 33.5842C31.4299 33.8857 30.9964 34.1192 30.5045 34.2274C30.3934 34.2513 30.2796 34.2647 30.1657 34.2685C29.6001 34.2905 29.0383 34.2819 28.4909 34.1001C27.3109 33.7067 26.5309 32.9229 26.1586 31.7353C25.9634 31.1113 25.8954 30.4672 25.9222 29.8174C25.9614 28.8862 26.0122 27.954 26.0753 27.0238C26.1299 26.2141 26.2064 25.4055 26.2773 24.5958C26.3356 23.9259 26.3998 23.2569 26.462 22.587C26.5519 21.6204 26.6419 20.6538 26.7328 19.6882C26.7768 19.2211 26.8209 18.7531 26.8658 18.2861C26.8869 18.065 26.8276 17.9904 26.6103 17.9904C25.348 17.9894 24.0847 17.9894 22.8224 17.9904C22.6224 17.9904 22.5659 18.0497 22.5525 18.2488C22.474 19.4451 22.4061 20.6433 22.3132 21.8386C22.2214 23.0215 22.1113 24.2025 21.9926 25.3825C21.9084 26.2218 21.8127 27.0602 21.6912 27.8947C21.5036 29.1752 21.2691 30.4471 20.9026 31.6912C20.7667 32.1535 20.6116 32.6109 20.3752 33.034C20.0738 33.5728 19.6498 33.9785 19.0526 34.1738C18.9043 34.2226 18.7445 34.2542 18.5885 34.2637C18.2277 34.2867 17.864 34.3097 17.5109 34.2054C16.8763 34.0178 16.3835 33.6551 16.1356 33.0215C15.9365 32.5114 15.9796 32.0023 16.1873 31.5017C16.3777 31.0414 16.6294 30.6165 16.9204 30.2155C17.4802 29.4451 18.02 28.6632 18.4727 27.8229C19.1407 26.5826 19.645 25.282 19.9379 23.9C20.1618 22.8444 20.3331 21.7802 20.4528 20.7083C20.5437 19.8949 20.6212 19.0804 20.7035 18.267C20.7227 18.0756 20.6528 17.9894 20.4623 17.9923C19.8345 18.0009 19.2067 17.9617 18.5799 18.0354C17.753 18.133 17.0256 18.4268 16.4438 19.045C15.9892 19.5283 15.6064 20.0633 15.2484 20.6193C15.1901 20.7103 15.1326 20.8021 15.0628 20.8835C14.9585 21.005 14.8206 21.0682 14.6589 21.0605C14.5086 21.0538 14.4359 20.9859 14.4311 20.8375C14.4273 20.7246 14.4292 20.6059 14.4608 20.4988C14.7709 19.4355 15.17 18.4105 15.7614 17.4678C16.0992 16.9281 16.4859 16.4275 16.9586 15.9959C17.4582 15.5404 18.0487 15.2925 18.7091 15.1824C19.557 15.0418 20.4116 15.0083 21.2691 15.0083C24.9049 15.0083 28.5406 15.0102 32.1764 15.0035C32.4271 15.0035 32.6827 14.9604 32.9258 14.8963C33.3019 14.7968 33.588 14.5575 33.7986 14.2302C33.9019 14.0704 34.0005 13.9077 34.0981 13.744C34.145 13.6646 34.2072 13.6263 34.3001 13.6301C34.3881 13.634 34.4465 13.6656 34.4522 13.7622C34.4532 13.7814 34.456 13.8005 34.456 13.8187C34.48 14.8733 34.2838 15.8763 33.7478 16.796C33.4799 17.2554 33.1219 17.6257 32.6233 17.8392C32.3946 17.9368 32.1573 17.9942 31.9036 17.9923C31.2624 17.9866 30.6222 17.9904 29.981 17.9904C29.9369 17.9904 29.892 17.9885 29.8479 17.9913C29.6967 17.9999 29.6422 18.0468 29.6259 18.1952C29.6106 18.334 29.6001 18.4737 29.5915 18.6124C29.5168 19.7389 29.4422 20.8663 29.3685 21.9936C29.291 23.1842 29.2058 24.3738 29.1417 25.5653C29.0957 26.4209 29.0861 27.2784 29.135 28.134C29.1637 28.6469 29.2316 29.1551 29.3522 29.6575C29.5331 30.4098 30.0384 30.8175 30.7504 31.006C31.1418 31.1094 31.54 31.1333 31.9333 31.0041C32.2759 30.8921 32.5717 30.6969 32.8415 30.4615C33.2368 30.1179 33.5612 29.7121 33.8723 29.2939C33.9747 29.1561 34.0771 29.0192 34.1843 28.8852C34.2254 28.8335 34.2809 28.7924 34.3297 28.7465C34.3479 28.7522 34.3651 28.7608 34.3824 28.7685Z" />
    <path d="M34.1164 43.6777C33.7623 43.7734 33.4091 43.8701 33.055 43.9648C31.9468 44.2615 30.8395 44.5572 29.7313 44.8539C28.5436 45.1717 27.3569 45.4894 26.1692 45.8062C25.729 45.9239 25.2878 46.0426 24.8466 46.1593C24.6341 46.2158 24.4197 46.2158 24.2073 46.1593C23.368 45.9363 22.5296 45.7143 21.6903 45.4904C20.7294 45.2339 19.7686 44.9755 18.8077 44.7171C17.7674 44.4376 16.7271 44.1582 15.6868 43.8787C15.4371 43.8117 15.1873 43.7457 14.9365 43.649C14.9738 43.6423 15.0112 43.6299 15.0485 43.6299C17.1099 43.6299 19.1714 43.6261 21.2338 43.6375C21.4568 43.6385 21.6807 43.7151 21.9008 43.7725C22.7344 43.9907 23.567 44.2146 24.3987 44.4395C24.4887 44.4635 24.569 44.4635 24.658 44.4395C25.5577 44.1964 26.4573 43.9591 27.3569 43.716C27.5598 43.6615 27.7617 43.628 27.9742 43.6289C29.9791 43.6328 31.9832 43.6299 33.9881 43.6299C34.0303 43.6299 34.0714 43.6356 34.1135 43.6385C34.1135 43.65 34.1154 43.6643 34.1164 43.6777Z" />
    <path d="M30.6588 39.9907C30.8043 39.8529 30.9459 39.7103 31.0971 39.5782C31.1296 39.5495 31.1919 39.5466 31.2407 39.5466C31.9575 39.5447 32.6743 39.539 33.3911 39.5476C33.8428 39.5533 34.1921 39.8758 34.2343 40.2979C34.2802 40.7649 34.0065 41.1315 33.5347 41.2367C33.5232 41.2396 33.5136 41.2492 33.4887 41.2635C33.6179 41.4722 33.8467 41.5899 34.0017 41.8224C33.7672 41.833 33.5615 41.8416 33.3576 41.8157C33.3088 41.81 33.2629 41.7564 33.2217 41.7191C33.0829 41.5899 32.9442 41.4588 32.8092 41.3248C32.7509 41.2664 32.6877 41.2406 32.6063 41.2415C32.1431 41.2434 31.6799 41.2425 31.2167 41.2434C31.1928 41.2434 31.1679 41.2511 31.1162 41.2607C31.1162 41.4396 31.1162 41.6196 31.1162 41.8148C30.9411 41.8148 30.7947 41.8148 30.6224 41.8148C30.6224 41.632 30.6176 41.4626 30.6262 41.2942C30.6282 41.2501 30.6664 41.2032 30.699 41.1669C30.7755 41.0827 30.8655 41.0099 30.9382 40.9219C31.0397 40.7994 31.1574 40.7563 31.3182 40.7592C31.9967 40.7688 32.6762 40.7621 33.3547 40.764C33.4763 40.7649 33.5796 40.741 33.6581 40.6415C33.7471 40.5276 33.7777 40.4051 33.7222 40.2682C33.6667 40.1314 33.5595 40.0615 33.417 40.0443C33.3672 40.0385 33.3155 40.0424 33.2648 40.0424C32.4714 40.0424 31.679 40.0424 30.8856 40.0424C30.8177 40.0424 30.7497 40.0424 30.6818 40.0424C30.6741 40.0251 30.6664 40.0079 30.6588 39.9907Z" />
    <path d="M14.8332 40.0339C14.9222 39.9411 15.0188 39.853 15.1002 39.7535C15.2102 39.6176 15.3433 39.5793 15.5155 39.5822C16.1941 39.5917 16.8736 39.5946 17.5521 39.5831C18.112 39.5736 18.6287 40.1641 18.3148 40.8263C18.1722 41.1268 17.9062 41.2886 17.5626 41.2895C16.8841 41.2905 16.2055 41.2895 15.5261 41.2905C15.4514 41.2905 15.3777 41.2905 15.2772 41.2905C15.2772 41.4264 15.2791 41.5384 15.2772 41.6513C15.2744 41.8216 15.2667 41.8293 15.0906 41.8322C15.0026 41.8331 14.9145 41.8322 14.8073 41.8322C14.7786 41.6503 14.7413 41.456 14.8073 41.3173C14.9107 41.0981 15.1011 40.9249 15.326 40.812C15.372 40.789 15.439 40.8043 15.4954 40.8043C16.174 40.8043 16.8525 40.8014 17.532 40.8062C17.7081 40.8072 17.8239 40.7364 17.8899 40.5794C17.9828 40.3612 17.8555 40.1277 17.622 40.0894C17.5473 40.077 17.4698 40.0789 17.3942 40.0789C16.6142 40.0779 15.8333 40.0789 15.0533 40.0789C14.9863 40.0789 14.9193 40.0789 14.8523 40.0789C14.8456 40.0626 14.8389 40.0483 14.8332 40.0339Z" />
    <path d="M22.3477 39.5392C22.3506 39.5995 22.3563 39.6597 22.3563 39.721C22.3573 40.1019 22.3544 40.4818 22.3573 40.8627C22.3592 41.1068 22.4482 41.2417 22.6386 41.3106C22.6568 41.3173 22.675 41.3278 22.6932 41.3278C22.9382 41.3288 23.1842 41.3288 23.4521 41.3288C23.4521 41.0407 23.4521 40.7709 23.4521 40.5105C23.6033 40.4503 23.699 40.4464 23.922 40.4876C23.922 40.7565 23.922 41.0321 23.922 41.3326C24.1986 41.3317 24.4513 41.3566 24.7001 41.3192C24.8886 41.2915 25.0102 41.1211 25.013 40.9192C25.0169 40.6464 25.0169 40.3737 25.0121 40.1009C25.0102 39.9995 25.0331 39.9191 25.1126 39.8492C25.2293 39.7449 25.3375 39.631 25.4743 39.4961C25.4858 39.5803 25.4963 39.6263 25.4963 39.6731C25.4973 40.0923 25.4868 40.5105 25.5002 40.9288C25.5136 41.3604 25.1413 41.8217 24.6264 41.8284C23.9986 41.836 23.3698 41.8408 22.743 41.8274C22.2443 41.8169 21.8768 41.4245 21.8702 40.9278C21.8663 40.6484 21.873 40.3699 21.8673 40.0904C21.8654 39.9937 21.8931 39.922 21.9649 39.8559C22.0807 39.7497 22.1898 39.6358 22.3018 39.5248C22.318 39.5286 22.3334 39.5344 22.3477 39.5392Z" />
    <path d="M29.8685 41.8262C29.6455 41.8262 29.4636 41.8358 29.2828 41.8205C29.2282 41.8157 29.1689 41.7478 29.1306 41.6951C28.81 41.2616 28.4951 40.8252 28.1774 40.3897C28.1487 40.3505 28.1152 40.3132 28.0712 40.2596C28.0204 40.3227 27.9764 40.3735 27.9362 40.428C27.6242 40.852 27.3113 41.275 27.005 41.7028C26.938 41.7956 26.8653 41.8377 26.7524 41.832C26.6088 41.8253 26.4643 41.8301 26.2939 41.8301C26.3217 41.7669 26.3322 41.7248 26.3562 41.6932C26.8155 41.0635 27.2768 40.4347 27.7381 39.806C27.7572 39.7801 27.7754 39.7543 27.7955 39.7303C27.9582 39.5332 28.186 39.5275 28.3449 39.7284C28.5133 39.9418 28.6703 40.1658 28.831 40.3859C29.1459 40.8156 29.4598 41.2453 29.7747 41.676C29.7986 41.7104 29.8196 41.7487 29.8685 41.8262Z" />
    <path d="M19.644 39.5435C19.644 40.2947 19.644 41.047 19.644 41.8021C19.6115 41.8126 19.5885 41.8269 19.5656 41.8269C19.0698 41.8355 19.1655 41.8652 19.1607 41.4499C19.155 40.9934 19.1617 40.5369 19.1579 40.0804C19.1569 39.9703 19.1847 39.888 19.2737 39.8172C19.3914 39.7253 19.4976 39.6191 19.6096 39.5195C19.6211 39.5272 19.6326 39.5358 19.644 39.5435Z" />
  </g>
  <defs>
    <clipPath id="clip0_761_1108">
      <rect width="49" height="49" />
    </clipPath>
  </defs>
</svg>