<svg xmlns="http://www.w3.org/2000/svg" width="41" height="41" viewBox="0 0 41 41" fill="none">
  <path d="M28.3993 23.7837L33.0409 28.4276L20.4795 41L7.91983 28.4293L12.5614 23.7837L20.4812 31.7515L28.3993 23.7837ZM36.3209 15.857L41 20.5009L36.3619 25.1448L31.7203 20.5009L36.3209 15.857ZM20.4812 15.857L25.121 20.4598L20.4795 25.1054L15.8397 20.5009L20.4795 15.8587L20.4812 15.857ZM4.63983 15.857L9.24208 20.5009L4.64325 25.1037L0 20.5009L4.63983 15.857ZM20.4829 0L33.0426 12.5331L28.401 17.1752L20.4812 9.24847L12.5631 17.2163L7.92154 12.5724L20.4812 0.00170983L20.4829 0Z" fill="#F7C61A"/>
</svg>