<svg width="80" height="67" viewBox="0 0 109 96" fill="none" xmlns="http://www.w3.org/2000/svg">
<path d="M107.53 75.6904L89.8098 94.6904C89.4266 95.1032 88.9624 95.4325 88.4463 95.6579C87.9301 95.8833 87.373 95.9999 86.8098 96.0004H2.80982C2.40918 96.0002 2.0173 95.8832 1.68217 95.6636C1.34704 95.4441 1.08319 95.1316 0.922943 94.7644C0.762694 94.3972 0.712996 93.9913 0.779934 93.5963C0.846872 93.2013 1.02754 92.8343 1.29982 92.5404L18.9998 73.5404C19.3831 73.1277 19.8473 72.7984 20.3634 72.573C20.8796 72.3477 21.4366 72.231 21.9998 72.2304H106C106.404 72.2221 106.802 72.3335 107.143 72.5507C107.484 72.7679 107.753 73.0811 107.917 73.4509C108.081 73.8208 108.131 74.2308 108.062 74.6293C107.993 75.0278 107.808 75.397 107.53 75.6904ZM89.8098 37.4204C89.4251 37.0096 88.9606 36.6816 88.4448 36.4563C87.929 36.2311 87.3727 36.1134 86.8098 36.1104H2.80982C2.40918 36.1107 2.0173 36.2277 1.68217 36.4472C1.34704 36.6668 1.08319 36.9793 0.922943 37.3465C0.762694 37.7137 0.712996 38.1196 0.779934 38.5146C0.846872 38.9096 1.02754 39.2765 1.29982 39.5704L18.9998 58.5804C19.3846 58.9913 19.849 59.3193 20.3648 59.5445C20.8807 59.7698 21.437 59.8875 21.9998 59.8904H106C106.4 59.8883 106.79 59.7698 107.124 59.5495C107.457 59.3293 107.72 59.0167 107.879 58.6498C108.038 58.283 108.087 57.8779 108.019 57.4838C107.952 57.0897 107.772 56.7237 107.5 56.4304L89.8098 37.4204ZM2.80982 23.7704H86.8098C87.373 23.77 87.9301 23.6534 88.4463 23.428C88.9625 23.2026 89.4266 22.8732 89.8098 22.4604L107.53 3.46044C107.738 3.24085 107.894 2.97809 107.989 2.69093C108.083 2.40377 108.113 2.09931 108.076 1.79932C108.039 1.49932 107.936 1.2112 107.775 0.955545C107.613 0.699892 107.398 0.483023 107.143 0.320441C106.802 0.103395 106.404 -0.00793934 106 0.00044054H21.9998C21.4366 0.00103338 20.8796 0.117659 20.3634 0.343044C19.8473 0.56843 19.3831 0.897741 18.9998 1.31044L1.29982 20.3104C1.02754 20.6043 0.846872 20.9713 0.779934 21.3663C0.712996 21.7613 0.762694 22.1672 0.922943 22.5344C1.08319 22.9016 1.34704 23.2141 1.68217 23.4336C2.0173 23.6532 2.40918 23.7702 2.80982 23.7704Z" fill="url(#paint0_linear_801_1102)"/>
<defs>
<linearGradient id="paint0_linear_801_1102" x1="9.80982" y1="98.2904" x2="97.8898" y2="-1.00956" gradientUnits="userSpaceOnUse">
<stop offset="0.08" stop-color="#9945FF"/>
<stop offset="0.3" stop-color="#8752F3"/>
<stop offset="0.5" stop-color="#5497D5"/>
<stop offset="0.6" stop-color="#43B4CA"/>
<stop offset="0.72" stop-color="#28E0B9"/>
<stop offset="0.97" stop-color="#19FB9B"/>
</linearGradient>
</defs>
</svg>
